:SAMPLES-PER-SECOND 30
:FULLY-SPECIFIED
:DEGREES
166
root  6.31388 38.5582 -11.6919 6.96965 -79.4181 -12.3477
RightUpLeg  0.703332 -3.93831 -17.3372
RightLeg  21.4944 -8.3075 -3.86672
RightFoot  3.59648 -3.34617 25.4411
RightToes  -5.28226e-011 1.30204e-014 -6.03759e-014
Spine  15.012 -0.553062 3.77859
Spine1  -1.30579 0.319314 -1.91338
HEad  -15.3865 1.61824 -2.51386
LeftShoulder1  0.0652226 -1.39466 7.989
LeftArm  -24.981 8.73208 -17.9904
LeftForeArm  140.75 -77.5333 -119.088
LeftHand  0.578114 14.5309 7.81915
RightShoulder  0.289558 -1.02332 3.66037
RightArm  -29.1139 -17.755 2.14041
RightForeArm  156.839 73.1289 141.123
RightHand  0.67525 -10.7575 -14.6376
LeftUpLeg  -17.2864 12.1638 23.0327
LeftLeg  43.2474 8.09482 8.59471
LeftFoot  5.65393 2.06638 -14.0183
LeftToes  -2.42178e-010 -1.66495e-011 -2.88221e-011
167
root  6.19639 39.3515 -9.73298 5.91408 -81.9722 -10.0374
RightUpLeg  0.405197 -5.55508 -20.1776
RightLeg  15.7918 -10.9428 -4.37601
RightFoot  16.1261 -5.21783 21.818
RightToes  -5.28226e-011 1.30204e-014 -6.03759e-014
Spine  12.1867 0.997054 5.40332
Spine1  -1.40872 2.1567 -3.82527
HEad  -12.8598 0.331638 -3.27187
LeftShoulder1  -0.0773759 -4.59676 10.8067
LeftArm  -16.0913 4.98473 -8.62454
LeftForeArm  38.0612 -59.0421 -13.9276
LeftHand  0.148846 9.65864 5.37395
RightShoulder  0.173444 -1.20481 -0.986927
RightArm  -24.9424 -10.9948 -6.90934
RightForeArm  42.1256 69.5857 30.3623
RightHand  0.0898806 -7.70944 -5.25612
LeftUpLeg  -10.6717 6.67319 24.3292
LeftLeg  26.2314 7.98663 4.55854
LeftFoot  9.60695 2.63416 -14.5225
LeftToes  -2.42178e-010 -1.66495e-011 -2.88221e-011
168
root  6.07759 39.741 -7.78807 6.68604 -84.3408 -10.6887
RightUpLeg  -0.355965 -6.4496 -21.7683
RightLeg  13.8577 -11.7131 -4.70675
RightFoot  24.6824 -4.19812 13.3308
RightToes  -5.28226e-011 1.30204e-014 -6.03759e-014
Spine  8.99803 1.86359 5.84564
Spine1  0.964578 2.93421 -3.7903
HEad  -9.35277 0.994901 -3.68441
LeftShoulder1  -0.228262 -6.42401 12.317
LeftArm  -3.67643 -2.07487 -3.46486
LeftForeArm  27.0045 -22.4352 -5.20119
LeftHand  -0.0179658 6.55665 2.83568
RightShoulder  0.11104 -0.55186 -5.29841
RightArm  -21.1506 2.96325 -10.2832
RightForeArm  19.3655 30.5266 5.86229
RightHand  -0.0409253 -3.84529 -0.541177
LeftUpLeg  -4.68994 2.38618 24.7743
LeftLeg  13.689 2.39927 2.48635
LeftFoot  15.066 3.66821 -15.8614
LeftToes  -2.42178e-010 -1.66495e-011 -2.88221e-011
169
root  6.05781 39.7001 -5.93006 -1.64566 -86.5442 -2.66136
RightUpLeg  -2.60512 -0.923051 -22.7119
RightLeg  18.2948 -13.6694 -5.44507
RightFoot  26.5903 -1.84788 5.84187
RightToes  -5.28226e-011 1.30204e-014 -6.03759e-014
Spine  7.55356 2.10874 5.61717
Spine1  2.1095 3.20379 -4.62174
HEad  -5.67035 2.1118 -3.14683
LeftShoulder1  -0.37455 -6.29849 14.063
LeftArm  -10.9349 -6.86857 -2.95469
LeftForeArm  38.5885 2.25644 -12.1073
LeftHand  -0.0645708 6.06564 -5.07711
RightShoulder  0.0937249 1.07265 -7.4355
RightArm  -28.5938 13.177 -11.6493
RightForeArm  28.7772 1.86506 8.53993
RightHand  0.00722815 -3.79697 2.6613
LeftUpLeg  -1.04873 8.22951 23.2844
LeftLeg  8.81984 -10.1513 3.21714
LeftFoot  17.1021 5.21579 -20.889
LeftToes  -2.42178e-010 -1.66495e-011 -2.88221e-011
170
root  6.18973 39.2715 -4.19903 -41.1459 -87.7107 36.7365
RightUpLeg  -7.11863 3.85475 -23.783
RightLeg  29.2781 -12.243 -7.48144
RightFoot  23.9523 -0.763044 2.94787
RightToes  -5.28226e-011 1.30204e-014 -6.03759e-014
Spine  8.22103 2.54596 4.57916
Spine1  1.17526 3.81689 -6.97757
HEad  -4.80083 2.04479 -2.16485
LeftShoulder1  -0.441707 -5.37446 15.3645
LeftArm  -11.0899 -6.12188 -6.6111
LeftForeArm  41.8648 7.02949 -11.3659
LeftHand  -0.00228016 4.94905 -8.95707
RightShoulder  0.149254 2.38959 -6.82731
RightArm  -25.6327 13.222 -11.3788
RightForeArm  30.723 -1.15993 8.45654
RightHand  0.0116948 -4.49388 4.92748
LeftUpLeg  -0.0410399 9.36856 21.383
LeftLeg  11.5016 -10.6389 1.20269
LeftFoot  11.5978 5.60552 -27.7187
LeftToes  -2.42178e-010 -1.66495e-011 -2.88221e-011
171
root  6.39353 38.5443 -2.52005 -84.2119 -86.1831 79.8608
RightUpLeg  -12.841 6.5028 -24.8743
RightLeg  44.2821 -9.42627 -10.0309
RightFoot  19.9797 -0.732989 3.12285
RightToes  -5.28226e-011 1.30204e-014 -6.03759e-014
Spine  9.57284 3.03974 2.5402
Spine1  -0.118233 4.18702 -8.52638
HEad  -6.45438 1.39121 -1.80416
LeftShoulder1  -0.246697 -4.13759 13.2869
LeftArm  -3.81741 -0.561762 -10.9022
LeftForeArm  38.0153 -4.37516 -10.263
LeftHand  -0.0151122 4.06975 -1.92674
RightShoulder  0.280759 2.16325 -3.92687
RightArm  -13.9684 6.63827 -9.50553
RightForeArm  29.9007 16.271 8.7453
RightHand  -0.00249699 -3.74168 1.50263
LeftUpLeg  -1.03305 9.33778 17.7533
LeftLeg  17.4773 -7.18939 -1.35898
LeftFoot  0.444537 3.31776 -30.9062
LeftToes  -2.42178e-010 -1.66495e-011 -2.88221e-011
172
root  6.6045 37.7702 -0.859809 -85.1483 -83.8056 80.594
RightUpLeg  -18.0943 7.5675 -24.9043
RightLeg  60.2421 -6.70612 -13.0128
RightFoot  16.1826 -0.7122 3.35765
RightToes  -5.28226e-011 1.30204e-014 -6.03759e-014
Spine  10.2655 2.83453 -0.345876
Spine1  0.0302109 3.41615 -7.617
HEad  -7.55477 1.79129 -2.44365
LeftShoulder1  0.161583 -2.64957 6.53762
LeftArm  12.8878 6.52714 -14.3741
LeftForeArm  21.8333 -24.1406 -5.02799
LeftHand  -0.166513 4.21022 12.9738
RightShoulder  0.403787 0.932863 0.814483
RightArm  -7.4438 0.0500651 -6.45077
RightForeArm  32.0748 40.5914 6.88856
RightHand  -0.0468703 -4.84324 -7.41525
LeftUpLeg  -3.68448 8.37661 12.5583
LeftLeg  24.4852 -4.90877 -2.14755
LeftFoot  -9.81801 0.444131 -27.0411
LeftToes  -2.42178e-010 -1.66495e-011 -2.88221e-011
173
root  6.87917 37.0171 0.689003 -82.3863 -81.7455 76.6978
RightUpLeg  -22.4344 7.44018 -23.0969
RightLeg  75.686 -3.15754 -15.0828
RightFoot  12.6838 -0.550747 2.99895
RightToes  -5.28226e-011 1.30204e-014 -6.03759e-014
Spine  10.4511 1.94068 -3.42634
Spine1  2.93473 1.85235 -5.49184
HEad  -8.69097 3.62719 -3.33241
LeftShoulder1  0.558482 -1.60229 -2.72486
LeftArm  0.788878 12.9771 -17.1936
LeftForeArm  31.1762 -38.0002 -6.65632
LeftHand  -0.320026 3.97043 27.2802
RightShoulder  0.549538 0.203203 7.17805
RightArm  -14.1788 -5.27046 -1.51594
RightForeArm  47.3983 61.9166 17.3949
RightHand  0.0515976 -5.93377 -17.6538
LeftUpLeg  -6.62899 5.51356 7.18991
LeftLeg  32.2032 -2.29422 -1.16628
LeftFoot  -16.0609 -0.814852 -21.4284
LeftToes  -2.42178e-010 -1.66495e-011 -2.88221e-011
174
root  7.26805 36.1874 2.01298 -86.4093 -79.8554 78.2257
RightUpLeg  -26.1979 6.49768 -19.7845
RightLeg  89.6774 0.6749 -14.2464
RightFoot  9.93099 -0.482185 2.93483
RightToes  -5.28226e-011 1.30204e-014 -6.03759e-014
Spine  11.3173 1.30757 -6.1668
Spine1  8.71256 0.750973 -4.4118
HEad  -13.864 5.78756 -3.58707
LeftShoulder1  0.995507 -1.84676 -11.2686
LeftArm  -9.10545 18.4812 -24.1974
LeftForeArm  34.8591 -49.9174 -10.6797
LeftHand  -0.180513 4.74617 35.7342
RightShoulder  0.842702 0.47878 14.2499
RightArm  -17.0515 -11.9825 8.11893
RightForeArm  79.9943 78.5509 50.2366
RightHand  -0.0898289 -4.97792 -25.6046
LeftUpLeg  -7.85956 3.98186 2.82078
LeftLeg  39.6079 -0.830504 -0.354699
LeftFoot  -20.4868 -1.46612 -19.5494
LeftToes  -2.42178e-010 -1.66495e-011 -2.88221e-011
175
root  7.70474 35.4676 3.04706 -94.3743 -77.7386 83.1426
RightUpLeg  -29.7762 4.37898 -15.8203
RightLeg  100.574 3.02053 -11.849
RightFoot  8.34112 -0.579276 3.67136
RightToes  -5.28226e-011 1.30204e-014 -6.03759e-014
Spine  13.3598 1.41074 -9.09226
Spine1  14.8099 0.436523 -4.7077
HEad  -23.0171 7.5434 -3.23647
LeftShoulder1  1.58591 -3.20116 -16.9905
LeftArm  -15.3687 21.7165 -36.1609
LeftForeArm  35.1648 -60.868 -17.0529
LeftHand  0.25572 6.08664 39.1179
RightShoulder  1.27003 1.31459 20.0346
RightArm  -17.3179 -19.3224 24.2814
RightForeArm  154.526 80.3033 121.829
RightHand  -0.279513 -4.25235 -28.4456
LeftUpLeg  -7.24109 5.9378 -0.610282
LeftLeg  44.6335 -1.38539 -1.01879
LeftFoot  -23.9892 -2.01786 -19.3699
LeftToes  -2.42178e-010 -1.66495e-011 -2.88221e-011
176
root  8.05116 35.1277 3.85044 -96.1594 -75.8086 83.0771
RightUpLeg  -33.7365 0.514669 -11.92
RightLeg  106.995 3.87979 -10.1117
RightFoot  7.20581 -0.823773 5.35316
RightToes  -5.28226e-011 1.30204e-014 -6.03759e-014
Spine  15.328 1.28489 -12.295
Spine1  18.0511 -0.377726 -4.6447
HEad  -30.7592 9.15452 -3.0104
LeftShoulder1  2.08729 -4.58865 -19.332
LeftArm  -15.9308 20.4751 -49.1794
LeftForeArm  40.5704 -70.4068 -28.1082
LeftHand  0.145948 5.7531 40.2912
RightShoulder  1.64412 2.15348 22.9395
RightArm  -15.3335 -23.7898 42.4155
RightForeArm  157.352 80.1694 120.016
RightHand  -0.233963 -4.39993 -26.481
LeftUpLeg  -6.81115 8.54154 -3.29227
LeftLeg  46.8372 -2.32178 -2.15713
LeftFoot  -25.25 -1.98401 -17.354
LeftToes  -2.42178e-010 -1.66495e-011 -2.88221e-011
